#!OML:ASF F:\twosubjects\two\Thursday\Session 1\justin.ASF
:FULLY-SPECIFIED
:DEGREES
372
root 24.5573 15.5503 -5.04042 12.1462 -48.1189 -5.05453
lowerback 29.3004 2.70758 -5.64007
upperback 7.60013 1.39559 -0.502867
thorax -7.68737 0.560825 2.22383
lowerneck -12.8161 -11.7716 -17.0043
upperneck -18.3868 -12.7304 22.0892
head -0.562656 -6.28673 9.08384
rclavicle 7.15625e-014 -3.10104e-014
rhumerus -22.0802 -13.8847 -81.2264
rradius 35.0226
rwrist 1.50464
rhand -12.2377 16.168
rfingers 7.12502
rthumb 13.8279 -13.3523
lclavicle 7.15625e-014 -3.10104e-014
lhumerus -32.6715 -5.94765 88.7445
lradius 70.8934
lwrist -11.2166
lhand -19.0842 28.0456
lfingers 7.12502
lthumb 7.22392 57.9023
rfemur -35.4676 -11.7839 8.30005
rtibia 68.4021
rfoot -32.7147 -5.58492
rtoes -36.9767
lfemur -39.9818 9.96425 3.84914
ltibia 61.9903
lfoot -25.6766 0.268861
ltoes -29.2949
373
root 24.5798 15.5615 -5.06687 12.2562 -48.2117 -5.03061
lowerback 29.299 3.05161 -5.8161
upperback 7.50522 1.82406 -0.0999261
thorax -7.84418 0.772656 2.62399
lowerneck -12.5271 -12.0247 -18.0197
upperneck -18.3474 -12.9915 22.2565
head -0.464169 -6.36828 9.2796
rclavicle -8.34896e-015 5.80451e-014
rhumerus -22.8496 -13.2906 -80.2116
rradius 35.9712
rwrist 0.353551
rhand -11.7983 16.4252
rfingers 7.12502
rthumb 14.2513 -13.0658
lclavicle -8.34896e-015 5.80451e-014
lhumerus -32.6832 -6.38461 89.8241
lradius 70.7343
lwrist -11.8353
lhand -19.1515 28.5292
lfingers 7.12502
lthumb 7.15891 58.3882
rfemur -35.9556 -11.6533 8.4674
rtibia 68.5767
rfoot -32.2749 -5.94102
rtoes -36.2531
lfemur -40.154 9.91602 3.80655
ltibia 61.8662
lfoot -25.2554 -0.259206
ltoes -27.8655
374
root 24.6049 15.5822 -5.10344 12.7484 -48.1855 -5.73267
lowerback 29.64 2.92688 -5.61967
upperback 7.51552 1.69719 -0.0653072
thorax -7.98237 0.710804 2.59017
lowerneck -12.8675 -11.7323 -17.133
upperneck -18.4272 -12.6631 21.839
head -0.601165 -6.2348 9.03414
rclavicle -5.64548e-014 -1.66979e-014
rhumerus -22.6709 -12.8933 -80.6025
rradius 36.0358
rwrist -0.199582
rhand -9.80659 18.8226
rfingers 7.12502
rthumb 16.1699 -10.523
lclavicle -5.64548e-014 -1.66979e-014
lhumerus -32.5275 -6.4481 89.4959
lradius 70.7637
lwrist -11.9948
lhand -19.0924 28.918
lfingers 7.12502
lthumb 7.21594 58.775
rfemur -36.2665 -11.4718 9.22487
rtibia 68.6885
rfoot -31.8215 -6.14532
rtoes -35.0905
lfemur -40.2551 9.94318 4.35586
ltibia 61.7401
lfoot -24.9206 -0.317677
ltoes -28.3439
375
root 24.6271 15.6015 -5.10689 13.0792 -48.5794 -6.12548
lowerback 29.6004 2.95973 -5.17963
upperback 7.36055 1.85898 -0.173602
thorax -8.13999 0.789421 2.1553
lowerneck -12.1123 -11.6474 -17.118
upperneck -18.7366 -12.6327 21.7808
head -0.815006 -6.25815 9.07006
rclavicle 1.20861e-013 -1.59028e-014
rhumerus -23.0307 -13.6692 -80.3207
rradius 35.9559
rwrist -0.19485
rhand -5.42933 21.184
rfingers 7.12502
rthumb 20.3809 -7.76651
lclavicle 1.20861e-013 -1.59028e-014
lhumerus -32.7845 -6.93676 89.5171
lradius 70.8463
lwrist -11.7007
lhand -18.8387 29.0532
lfingers 7.12502
lthumb 7.46081 58.9017
rfemur -36.5509 -11.1904 9.56279
rtibia 68.6969
rfoot -31.532 -6.72228
rtoes -35.3554
lfemur -40.0101 9.9951 4.56446
ltibia 61.5915
lfoot -24.7936 0.558526
ltoes -30.1655
376
root 24.6552 15.6069 -5.11887 13.2242 -48.907 -5.95942
lowerback 29.3592 2.96209 -5.42943
upperback 7.41216 1.79718 -0.246047
thorax -7.96398 0.758285 2.24506
lowerneck -12.9748 -11.8194 -16.9494
upperneck -18.25 -12.8133 21.7264
head -0.531516 -6.31071 8.93418
rclavicle -4.49253e-014 1.98785e-014
rhumerus -22.8426 -13.8043 -80.1414
rradius 36.1954
rwrist -0.16891
rhand -13.3491 16.4514
rfingers 7.12502
rthumb 12.7567 -13.1389
lclavicle -4.49253e-014 1.98785e-014
lhumerus -32.3894 -6.85644 89.3461
lradius 70.8602
lwrist -11.3177
lhand -18.1137 28.9316
lfingers 7.12502
lthumb 8.16061 58.754
rfemur -37.1752 -10.8688 9.50293
rtibia 68.774
rfoot -31.1698 -7.29224
rtoes -35.6758
lfemur -40.1527 9.93716 4.36773
ltibia 61.4384
lfoot -24.5277 1.21322
ltoes -30.9437
377
root 24.6799 15.6273 -5.13443 12.9257 -49.2043 -5.33168
lowerback 29.126 3.16347 -5.89208
upperback 7.66063 1.93543 -0.207055
thorax -7.59293 0.811002 2.51386
lowerneck -13.7328 -12.2267 -17.5838
upperneck -18.1437 -13.1716 22.2537
head -0.226223 -6.43389 9.1141
rclavicle -1.70955e-014 2.38542e-015
rhumerus -22.4367 -13.8836 -79.7262
rradius 36.6745
rwrist -0.51662
rhand -12.9265 17.279
rfingers 7.12502
rthumb 13.164 -12.2855
lclavicle -1.70955e-014 2.38542e-015
lhumerus -31.6419 -7.47199 89.5604
lradius 70.8561
lwrist -10.8818
lhand -17.4393 28.8575
lfingers 7.12502
lthumb 8.8114 58.6535
rfemur -37.5751 -10.5075 8.99213
rtibia 68.8509
rfoot -30.8603 -7.05104
rtoes -35.7357
lfemur -40.2507 9.75526 3.83406
ltibia 61.2908
lfoot -24.3347 1.53108
ltoes -29.3564
378
root 24.7042 15.6571 -5.14839 12.6029 -49.5144 -4.85702
lowerback 29.0291 3.10457 -6.2406
upperback 7.68698 1.72927 -0.57404
thorax -7.49438 0.712382 2.37751
lowerneck -13.6235 -11.9442 -17.0245
upperneck -18.2666 -12.8491 22.5196
head -0.337004 -6.32557 9.16389
rclavicle -4.6118e-014 -4.21423e-014
rhumerus -22.4067 -13.9536 -80.2375
rradius 36.9435
rwrist -0.855803
rhand -12.0153 17.2699
rfingers 7.12502
rthumb 14.0423 -12.2357
lclavicle -4.6118e-014 -4.21423e-014
lhumerus -31.6749 -8.05911 88.923
lradius 71.1027
lwrist -10.2984
lhand -17.2478 28.9418
lfingers 7.12502
lthumb 8.99619 58.73
rfemur -37.8122 -10.1765 8.48326
rtibia 68.9843
rfoot -30.5653 -6.35633
rtoes -35.3642
lfemur -40.1527 9.50264 3.41069
ltibia 61.1153
lfoot -24.0661 1.91418
ltoes -27.7015
379
root 24.7379 15.6747 -5.1725 12.891 -49.5345 -5.04887
lowerback 29.0983 2.99062 -6.04756
upperback 7.62353 1.62508 -0.664926
thorax -7.58477 0.665673 2.19937
lowerneck -13.7473 -11.8972 -16.6835
upperneck -18.1147 -12.8301 22.4191
head -0.31084 -6.32514 9.06498
rclavicle 1.35174e-014 -3.4191e-014
rhumerus -22.671 -14.1795 -80.228
rradius 37.3153
rwrist -1.14012
rhand -12.3152 16.8273
rfingers 7.12502
rthumb 13.7533 -12.6982
lclavicle 1.35174e-014 -3.4191e-014
lhumerus -31.8067 -8.63361 88.6843
lradius 71.3398
lwrist -10.0556
lhand -17.1745 28.9527
lfingers 7.12502
lthumb 9.06698 58.7378
rfemur -38.262 -9.95551 8.50672
rtibia 69.1769
rfoot -30.0619 -5.57431
rtoes -33.4513
lfemur -40.3673 9.30062 3.50954
ltibia 60.9482
lfoot -23.708 1.83131
ltoes -26.9964
380
root 24.7751 15.6822 -5.20348 13.1526 -49.4817 -5.09791
lowerback 29.2285 2.92049 -6.05676
upperback 7.54902 1.52669 -0.636983
thorax -7.72472 0.625235 2.26729
lowerneck -14.0851 -11.8751 -16.4451
upperneck -17.9652 -12.811 22.2082
head -0.261802 -6.30549 8.93859
rclavicle -3.18055e-015 -6.12257e-014
rhumerus -22.9977 -13.6814 -80.1988
rradius 38.1721
rwrist -2.54975
rhand -13.6872 16.054
rfingers 7.12502
rthumb 12.4307 -13.5563
lclavicle -3.18055e-015 -6.12257e-014
lhumerus -31.8265 -9.04976 88.5563
lradius 71.4803
lwrist -10.1831
lhand -16.7938 28.5813
lfingers 7.12502
lthumb 9.43426 58.3501
rfemur -38.9082 -9.82293 8.47786
rtibia 69.4175
rfoot -29.4508 -4.93866
rtoes -31.2504
lfemur -40.7286 9.16236 3.53543
ltibia 60.7448
lfoot -23.3198 2.01189
ltoes -27.5448
381
root 24.8059 15.6921 -5.23099 13.123 -49.6597 -4.91577
lowerback 29.2913 3.03949 -6.3526
upperback 7.5833 1.58806 -0.601112
thorax -7.72688 0.654744 2.45511
lowerneck -14.1998 -11.8522 -16.3871
upperneck -18.1484 -12.7606 22.18
head -0.315375 -6.28521 8.93128
rclavicle 6.75868e-014 -3.97569e-015
rhumerus -23.1803 -12.3933 -80.5848
rradius 39.6379
rwrist -6.46983
rhand -16.4997 12.7832
rfingers 7.12502
rthumb 9.71804 -16.9726
lclavicle 6.75868e-014 -3.97569e-015
lhumerus -31.6692 -9.67555 88.4962
lradius 71.4462
lwrist -10.2926
lhand -16.5121 28.0297
lfingers 7.12502
lthumb 9.7061 57.786
rfemur -39.511 -9.73465 8.28402
rtibia 69.6627
rfoot -28.7945 -4.62627
rtoes -31.015
lfemur -40.8126 9.10051 3.38385
ltibia 60.524
lfoot -23.0064 2.89922
ltoes -29.0506
